<?xml version="1.0" encoding="utf-8"?>
<!-- www.vectorico.com -->
<svg version="1.1" id="Soundcloud" xmlns="http://www.w3.org/2000/svg" xmlns:xlink="http://www.w3.org/1999/xlink" x="0px" y="0px"
	 viewBox="0 0 64 64" style="enable-background:new 0 0 64 64;" xml:space="preserve">
<style type="text/css">
	.st0{fill:#EF712B;}
	.st1{fill:#FFFFFF;}
</style>
<title>soundcloud icon</title>
<circle class="st0" cx="32" cy="32" r="31"/>
<path class="st1" d="M9.8,39.2c0,0.1-0.1,0.2-0.2,0.2c-0.1,0-0.2-0.1-0.2-0.2l-0.3-2.5l0.3-2.5C9.5,34,9.5,34,9.6,34
	c0.1,0,0.2,0.1,0.2,0.2l0,0l0.4,2.5L9.8,39.2z M11.5,40.7c0,0.1-0.1,0.2-0.2,0.2s-0.2-0.1-0.2-0.2l-0.4-4l0.4-4.1
	c0-0.1,0.1-0.2,0.2-0.2s0.2,0.1,0.2,0.2l0.5,4.1L11.5,40.7z M13.4,41.4c0,0.1-0.1,0.2-0.2,0.2c-0.1,0-0.2-0.1-0.2-0.2l-0.4-4.7
	l0.4-4.9c0-0.1,0.1-0.2,0.2-0.2c0.1,0,0.2,0.1,0.2,0.2l0.5,4.9L13.4,41.4z M15.2,41.5c0,0.1-0.1,0.3-0.3,0.3c-0.1,0-0.3-0.1-0.3-0.3
	l-0.4-4.8l0.4-5c0-0.1,0.1-0.3,0.3-0.3c0.1,0,0.3,0.1,0.3,0.3l0.5,5L15.2,41.5z M17.1,41.6c0,0.2-0.2,0.3-0.3,0.3
	c-0.1,0-0.2-0.1-0.3-0.3l-0.4-4.9l0.4-4.6c0-0.2,0.2-0.3,0.3-0.3c0.1,0,0.2,0.1,0.3,0.3l0.4,4.6L17.1,41.6z M19,41.6L19,41.6
	c0,0.2-0.2,0.3-0.4,0.3c-0.2,0-0.3-0.1-0.3-0.3l-0.4-4.9l0.4-7.6c0-0.2,0.2-0.3,0.4-0.3c0.2,0,0.3,0.1,0.3,0.3l0.4,7.6L19,41.6z
	 M20.8,41.6L20.8,41.6c0,0.2-0.2,0.4-0.4,0.4s-0.4-0.2-0.4-0.4l0,0l-0.3-4.9l0.3-9.3c0-0.2,0.2-0.4,0.4-0.4s0.4,0.2,0.4,0.4l0.4,9.3
	L20.8,41.6z M22.8,41.5L22.8,41.5c0,0.2-0.2,0.4-0.4,0.4s-0.4-0.2-0.4-0.4l-0.3-4.8l0.3-10.1c0-0.2,0.2-0.4,0.4-0.4s0.4,0.2,0.4,0.4
	l0.3,10.1L22.8,41.5z M24.7,41.5c0,0.3-0.3,0.4-0.5,0.4c-0.2,0-0.4-0.2-0.4-0.4l-0.3-4.8l0.3-10.4c0-0.3,0.3-0.4,0.5-0.4
	c0.2,0,0.4,0.2,0.4,0.4L25,36.7L24.7,41.5z M26.6,41.4L26.6,41.4c0,0.3-0.2,0.5-0.5,0.5s-0.5-0.2-0.5-0.5l-0.3-4.7l0.3-10.1
	c0-0.3,0.2-0.5,0.5-0.5s0.5,0.2,0.5,0.5l0,0l0.3,10.1L26.6,41.4z M28.6,41.4L28.6,41.4c0,0.3-0.2,0.5-0.5,0.5
	c-0.3,0-0.5-0.2-0.5-0.5l-0.2-4.7l0.2-9.8c0-0.3,0.2-0.5,0.5-0.5s0.5,0.2,0.5,0.5l0.3,9.8L28.6,41.4z M30.6,40.9l0,0.5
	c0,0.2-0.1,0.3-0.2,0.4c-0.1,0.1-0.3,0.2-0.4,0.2c-0.2,0-0.3-0.1-0.4-0.2c-0.1-0.1-0.1-0.2-0.1-0.3c0,0,0,0,0,0c0,0-0.2-4.7-0.2-4.7
	l0.2-11.5v-0.1c0-0.2,0.1-0.4,0.3-0.5c0.2-0.1,0.4-0.1,0.6,0c0.2,0.1,0.3,0.3,0.3,0.5l0.2,11.6L30.6,40.9z M32.5,41.3L32.5,41.3
	c0,0.3-0.3,0.6-0.6,0.6c-0.3,0-0.6-0.3-0.6-0.6L31.2,39L31,36.7l0.3-12.6V24c0-0.2,0.1-0.4,0.2-0.5c0.1-0.1,0.2-0.1,0.4-0.1
	c0.1,0,0.2,0,0.3,0.1c0.2,0.1,0.3,0.3,0.3,0.5l0.3,12.7L32.5,41.3z M49.2,41.9H33.7c-0.3,0-0.6-0.3-0.6-0.6V23.4
	c0-0.3,0.1-0.5,0.5-0.7c1.1-0.4,2.4-0.7,3.6-0.7c5.2,0,9.4,4,9.9,9c2.9-1.2,6.2,0.1,7.4,3c1.2,2.9-0.1,6.2-3,7.4
	C50.8,41.8,50,41.9,49.2,41.9L49.2,41.9z"/>
</svg>
